<?xml version="1.0" encoding="UTF-8" standalone="no"?>
<!DOCTYPE svg PUBLIC "-//W3C//DTD SVG 1.1//EN"
 "http://www.w3.org/Graphics/SVG/1.1/DTD/svg11.dtd">
<!-- Generated by graphviz version 2.47.0 (20210316.0004)
 -->
<!-- Title: dependencies Pages: 1 -->
<svg width="504pt" height="211pt"
 viewBox="0.00 0.00 504.00 211.00" xmlns="http://www.w3.org/2000/svg" xmlns:xlink="http://www.w3.org/1999/xlink">
<g id="graph0" class="graph" transform="scale(1 1) rotate(0) translate(4 207)">
<title>dependencies</title>
<polygon fill="white" stroke="transparent" points="-4,4 -4,-207 500,-207 500,4 -4,4"/>
<text text-anchor="start" x="227.01" y="-42.4" font-family="Times-12" font-weight="bold" font-size="14.00">Legend</text>
<polygon fill="#ffffb3" stroke="transparent" points="14,-10 14,-30 34,-30 34,-10 14,-10"/>
<text text-anchor="start" x="37.63" y="-15.4" font-family="Times-12" font-size="14.00"> &#160;Declarations</text>
<polygon fill="#8dd3c7" stroke="transparent" points="127,-10 127,-30 147,-30 147,-10 127,-10"/>
<text text-anchor="start" x="150.73" y="-15.4" font-family="Times-12" font-size="14.00"> &#160;Module</text>
<polygon fill="#80b1d3" stroke="transparent" points="213,-10 213,-30 233,-30 233,-10 213,-10"/>
<text text-anchor="start" x="236.78" y="-15.4" font-family="Times-12" font-size="14.00"> &#160;Bootstrap</text>
<polygon fill="#fdb462" stroke="transparent" points="310,-10 310,-30 330,-30 330,-10 310,-10"/>
<text text-anchor="start" x="333.67" y="-15.4" font-family="Times-12" font-size="14.00"> &#160;Providers</text>
<polygon fill="#fb8072" stroke="transparent" points="406,-10 406,-30 426,-30 426,-10 406,-10"/>
<text text-anchor="start" x="429.73" y="-15.4" font-family="Times-12" font-size="14.00"> &#160;Exports</text>
<g id="clust1" class="cluster">
<title>cluster_ClientModule</title>
<polygon fill="none" stroke="black" stroke-dasharray="1,5" points="17,-70 17,-195 479,-195 479,-70 17,-70"/>
</g>
<g id="clust6" class="cluster">
<title>cluster_ClientModule_providers</title>
<polygon fill="none" stroke="black" points="155,-78 155,-130 471,-130 471,-78 155,-78"/>
</g>
<g id="clust3" class="cluster">
<title>cluster_ClientModule_imports</title>
<polygon fill="none" stroke="black" points="25,-78 25,-130 147,-130 147,-78 25,-78"/>
</g>
<!-- AddressModule -->
<g id="node1" class="node">
<title>AddressModule</title>
<polygon fill="#8dd3c7" stroke="black" points="138.92,-122 135.92,-126 114.92,-126 111.92,-122 33.08,-122 33.08,-86 138.92,-86 138.92,-122"/>
<text text-anchor="middle" x="86" y="-99.8" font-family="Times,serif" font-size="14.00">AddressModule</text>
</g>
<!-- ClientModule -->
<g id="node2" class="node">
<title>ClientModule</title>
<polygon fill="#8dd3c7" stroke="black" points="273.77,-187 270.77,-191 249.77,-191 246.77,-187 180.23,-187 180.23,-151 273.77,-151 273.77,-187"/>
<text text-anchor="middle" x="227" y="-164.8" font-family="Times,serif" font-size="14.00">ClientModule</text>
</g>
<!-- AddressModule&#45;&gt;ClientModule -->
<g id="edge1" class="edge">
<title>AddressModule&#45;&gt;ClientModule</title>
<path fill="none" stroke="black" d="M86,-122.11C86,-141.34 86,-169 86,-169 86,-169 170.05,-169 170.05,-169"/>
<polygon fill="black" stroke="black" points="170.05,-172.5 180.05,-169 170.05,-165.5 170.05,-172.5"/>
</g>
<!-- ClientRepository -->
<g id="node3" class="node">
<title>ClientRepository</title>
<ellipse fill="#fdb462" stroke="black" cx="386" cy="-104" rx="77.04" ry="18"/>
<text text-anchor="middle" x="386" y="-99.8" font-family="Times,serif" font-size="14.00">ClientRepository</text>
</g>
<!-- ClientRepository&#45;&gt;ClientModule -->
<g id="edge2" class="edge">
<title>ClientRepository&#45;&gt;ClientModule</title>
<path fill="none" stroke="black" d="M386,-122.11C386,-141.34 386,-169 386,-169 386,-169 283.85,-169 283.85,-169"/>
<polygon fill="black" stroke="black" points="283.85,-165.5 273.85,-169 283.85,-172.5 283.85,-165.5"/>
</g>
<!-- ClientService -->
<g id="node4" class="node">
<title>ClientService</title>
<ellipse fill="#fdb462" stroke="black" cx="227" cy="-104" rx="63.7" ry="18"/>
<text text-anchor="middle" x="227" y="-99.8" font-family="Times,serif" font-size="14.00">ClientService</text>
</g>
<!-- ClientService&#45;&gt;ClientModule -->
<g id="edge3" class="edge">
<title>ClientService&#45;&gt;ClientModule</title>
<path fill="none" stroke="black" d="M227,-122.11C227,-122.11 227,-140.99 227,-140.99"/>
<polygon fill="black" stroke="black" points="223.5,-140.99 227,-150.99 230.5,-140.99 223.5,-140.99"/>
</g>
</g>
</svg>
