<?xml version="1.0" encoding="UTF-8" standalone="no"?>
<!DOCTYPE svg PUBLIC "-//W3C//DTD SVG 1.1//EN"
 "http://www.w3.org/Graphics/SVG/1.1/DTD/svg11.dtd">
<!-- Generated by graphviz version 2.47.0 (20210316.0004)
 -->
<!-- Title: dependencies Pages: 1 -->
<svg width="520pt" height="211pt"
 viewBox="0.00 0.00 520.00 211.00" xmlns="http://www.w3.org/2000/svg" xmlns:xlink="http://www.w3.org/1999/xlink">
<g id="graph0" class="graph" transform="scale(1 1) rotate(0) translate(4 207)">
<title>dependencies</title>
<polygon fill="white" stroke="transparent" points="-4,4 -4,-207 516,-207 516,4 -4,4"/>
<text text-anchor="start" x="235.01" y="-42.4" font-family="Times-12" font-weight="bold" font-size="14.00">Legend</text>
<polygon fill="#ffffb3" stroke="transparent" points="22,-10 22,-30 42,-30 42,-10 22,-10"/>
<text text-anchor="start" x="45.63" y="-15.4" font-family="Times-12" font-size="14.00"> &#160;Declarations</text>
<polygon fill="#8dd3c7" stroke="transparent" points="135,-10 135,-30 155,-30 155,-10 135,-10"/>
<text text-anchor="start" x="158.73" y="-15.4" font-family="Times-12" font-size="14.00"> &#160;Module</text>
<polygon fill="#80b1d3" stroke="transparent" points="221,-10 221,-30 241,-30 241,-10 221,-10"/>
<text text-anchor="start" x="244.78" y="-15.4" font-family="Times-12" font-size="14.00"> &#160;Bootstrap</text>
<polygon fill="#fdb462" stroke="transparent" points="318,-10 318,-30 338,-30 338,-10 318,-10"/>
<text text-anchor="start" x="341.67" y="-15.4" font-family="Times-12" font-size="14.00"> &#160;Providers</text>
<polygon fill="#fb8072" stroke="transparent" points="414,-10 414,-30 434,-30 434,-10 414,-10"/>
<text text-anchor="start" x="437.73" y="-15.4" font-family="Times-12" font-size="14.00"> &#160;Exports</text>
<g id="clust1" class="cluster">
<title>cluster_BeeyardModule</title>
<polygon fill="none" stroke="black" stroke-dasharray="1,5" points="8,-70 8,-195 504,-195 504,-70 8,-70"/>
</g>
<g id="clust3" class="cluster">
<title>cluster_BeeyardModule_imports</title>
<polygon fill="none" stroke="black" points="374,-78 374,-130 496,-130 496,-78 374,-78"/>
</g>
<g id="clust6" class="cluster">
<title>cluster_BeeyardModule_providers</title>
<polygon fill="none" stroke="black" points="16,-78 16,-130 366,-130 366,-78 16,-78"/>
</g>
<!-- AddressModule -->
<g id="node1" class="node">
<title>AddressModule</title>
<polygon fill="#8dd3c7" stroke="black" points="487.92,-122 484.92,-126 463.92,-126 460.92,-122 382.08,-122 382.08,-86 487.92,-86 487.92,-122"/>
<text text-anchor="middle" x="435" y="-99.8" font-family="Times,serif" font-size="14.00">AddressModule</text>
</g>
<!-- BeeyardModule -->
<g id="node2" class="node">
<title>BeeyardModule</title>
<polygon fill="#8dd3c7" stroke="black" points="325.19,-187 322.19,-191 301.19,-191 298.19,-187 218.81,-187 218.81,-151 325.19,-151 325.19,-187"/>
<text text-anchor="middle" x="272" y="-164.8" font-family="Times,serif" font-size="14.00">BeeyardModule</text>
</g>
<!-- AddressModule&#45;&gt;BeeyardModule -->
<g id="edge1" class="edge">
<title>AddressModule&#45;&gt;BeeyardModule</title>
<path fill="none" stroke="black" d="M435,-122.11C435,-141.34 435,-169 435,-169 435,-169 335.37,-169 335.37,-169"/>
<polygon fill="black" stroke="black" points="335.37,-165.5 325.37,-169 335.37,-172.5 335.37,-165.5"/>
</g>
<!-- BeeyardRepository -->
<g id="node3" class="node">
<title>BeeyardRepository</title>
<ellipse fill="#fdb462" stroke="black" cx="272" cy="-104" rx="85.67" ry="18"/>
<text text-anchor="middle" x="272" y="-99.8" font-family="Times,serif" font-size="14.00">BeeyardRepository</text>
</g>
<!-- BeeyardRepository&#45;&gt;BeeyardModule -->
<g id="edge2" class="edge">
<title>BeeyardRepository&#45;&gt;BeeyardModule</title>
<path fill="none" stroke="black" d="M272,-122.11C272,-122.11 272,-140.99 272,-140.99"/>
<polygon fill="black" stroke="black" points="268.5,-140.99 272,-150.99 275.5,-140.99 268.5,-140.99"/>
</g>
<!-- BeeyardService -->
<g id="node4" class="node">
<title>BeeyardService</title>
<ellipse fill="#fdb462" stroke="black" cx="96" cy="-104" rx="72.33" ry="18"/>
<text text-anchor="middle" x="96" y="-99.8" font-family="Times,serif" font-size="14.00">BeeyardService</text>
</g>
<!-- BeeyardService&#45;&gt;BeeyardModule -->
<g id="edge3" class="edge">
<title>BeeyardService&#45;&gt;BeeyardModule</title>
<path fill="none" stroke="black" d="M96,-122.11C96,-141.34 96,-169 96,-169 96,-169 208.72,-169 208.72,-169"/>
<polygon fill="black" stroke="black" points="208.72,-172.5 218.72,-169 208.72,-165.5 208.72,-172.5"/>
</g>
</g>
</svg>
