<?xml version="1.0" encoding="UTF-8" standalone="no"?>
<!DOCTYPE svg PUBLIC "-//W3C//DTD SVG 1.1//EN"
 "http://www.w3.org/Graphics/SVG/1.1/DTD/svg11.dtd">
<!-- Generated by graphviz version 2.47.0 (20210316.0004)
 -->
<!-- Title: dependencies Pages: 1 -->
<svg width="554pt" height="211pt"
 viewBox="0.00 0.00 554.00 211.00" xmlns="http://www.w3.org/2000/svg" xmlns:xlink="http://www.w3.org/1999/xlink">
<g id="graph0" class="graph" transform="scale(1 1) rotate(0) translate(4 207)">
<title>dependencies</title>
<polygon fill="white" stroke="transparent" points="-4,4 -4,-207 550,-207 550,4 -4,4"/>
<text text-anchor="start" x="252.01" y="-42.4" font-family="Times-12" font-weight="bold" font-size="14.00">Legend</text>
<polygon fill="#ffffb3" stroke="transparent" points="39,-10 39,-30 59,-30 59,-10 39,-10"/>
<text text-anchor="start" x="62.63" y="-15.4" font-family="Times-12" font-size="14.00"> &#160;Declarations</text>
<polygon fill="#8dd3c7" stroke="transparent" points="152,-10 152,-30 172,-30 172,-10 152,-10"/>
<text text-anchor="start" x="175.73" y="-15.4" font-family="Times-12" font-size="14.00"> &#160;Module</text>
<polygon fill="#80b1d3" stroke="transparent" points="238,-10 238,-30 258,-30 258,-10 238,-10"/>
<text text-anchor="start" x="261.78" y="-15.4" font-family="Times-12" font-size="14.00"> &#160;Bootstrap</text>
<polygon fill="#fdb462" stroke="transparent" points="335,-10 335,-30 355,-30 355,-10 335,-10"/>
<text text-anchor="start" x="358.67" y="-15.4" font-family="Times-12" font-size="14.00"> &#160;Providers</text>
<polygon fill="#fb8072" stroke="transparent" points="431,-10 431,-30 451,-30 451,-10 431,-10"/>
<text text-anchor="start" x="454.73" y="-15.4" font-family="Times-12" font-size="14.00"> &#160;Exports</text>
<g id="clust1" class="cluster">
<title>cluster_BeekeeperModule</title>
<polygon fill="none" stroke="black" stroke-dasharray="1,5" points="8,-70 8,-195 538,-195 538,-70 8,-70"/>
</g>
<g id="clust3" class="cluster">
<title>cluster_BeekeeperModule_imports</title>
<polygon fill="none" stroke="black" points="408,-78 408,-130 530,-130 530,-78 408,-78"/>
</g>
<g id="clust6" class="cluster">
<title>cluster_BeekeeperModule_providers</title>
<polygon fill="none" stroke="black" points="16,-78 16,-130 400,-130 400,-78 16,-78"/>
</g>
<!-- AddressModule -->
<g id="node1" class="node">
<title>AddressModule</title>
<polygon fill="#8dd3c7" stroke="black" points="521.92,-122 518.92,-126 497.92,-126 494.92,-122 416.08,-122 416.08,-86 521.92,-86 521.92,-122"/>
<text text-anchor="middle" x="469" y="-99.8" font-family="Times,serif" font-size="14.00">AddressModule</text>
</g>
<!-- BeekeeperModule -->
<g id="node2" class="node">
<title>BeekeeperModule</title>
<polygon fill="#8dd3c7" stroke="black" points="357.12,-187 354.12,-191 333.12,-191 330.12,-187 238.88,-187 238.88,-151 357.12,-151 357.12,-187"/>
<text text-anchor="middle" x="298" y="-164.8" font-family="Times,serif" font-size="14.00">BeekeeperModule</text>
</g>
<!-- AddressModule&#45;&gt;BeekeeperModule -->
<g id="edge1" class="edge">
<title>AddressModule&#45;&gt;BeekeeperModule</title>
<path fill="none" stroke="black" d="M469,-122.11C469,-141.34 469,-169 469,-169 469,-169 367.33,-169 367.33,-169"/>
<polygon fill="black" stroke="black" points="367.33,-165.5 357.33,-169 367.33,-172.5 367.33,-165.5"/>
</g>
<!-- BeekeeperRepository -->
<g id="node3" class="node">
<title>BeekeeperRepository</title>
<ellipse fill="#fdb462" stroke="black" cx="298" cy="-104" rx="94.32" ry="18"/>
<text text-anchor="middle" x="298" y="-99.8" font-family="Times,serif" font-size="14.00">BeekeeperRepository</text>
</g>
<!-- BeekeeperRepository&#45;&gt;BeekeeperModule -->
<g id="edge2" class="edge">
<title>BeekeeperRepository&#45;&gt;BeekeeperModule</title>
<path fill="none" stroke="black" d="M298,-122.11C298,-122.11 298,-140.99 298,-140.99"/>
<polygon fill="black" stroke="black" points="294.5,-140.99 298,-150.99 301.5,-140.99 294.5,-140.99"/>
</g>
<!-- BeekeeperService -->
<g id="node4" class="node">
<title>BeekeeperService</title>
<ellipse fill="#fdb462" stroke="black" cx="105" cy="-104" rx="80.98" ry="18"/>
<text text-anchor="middle" x="105" y="-99.8" font-family="Times,serif" font-size="14.00">BeekeeperService</text>
</g>
<!-- BeekeeperService&#45;&gt;BeekeeperModule -->
<g id="edge3" class="edge">
<title>BeekeeperService&#45;&gt;BeekeeperModule</title>
<path fill="none" stroke="black" d="M105,-122.11C105,-141.34 105,-169 105,-169 105,-169 228.78,-169 228.78,-169"/>
<polygon fill="black" stroke="black" points="228.78,-172.5 238.78,-169 228.78,-165.5 228.78,-172.5"/>
</g>
</g>
</svg>
