<?xml version="1.0" encoding="UTF-8" standalone="no"?>
<!DOCTYPE svg PUBLIC "-//W3C//DTD SVG 1.1//EN"
 "http://www.w3.org/Graphics/SVG/1.1/DTD/svg11.dtd">
<!-- Generated by graphviz version 2.47.0 (20210316.0004)
 -->
<!-- Title: dependencies Pages: 1 -->
<svg width="504pt" height="211pt"
 viewBox="0.00 0.00 504.00 211.00" xmlns="http://www.w3.org/2000/svg" xmlns:xlink="http://www.w3.org/1999/xlink">
<g id="graph0" class="graph" transform="scale(1 1) rotate(0) translate(4 207)">
<title>dependencies</title>
<polygon fill="white" stroke="transparent" points="-4,4 -4,-207 500,-207 500,4 -4,4"/>
<text text-anchor="start" x="227.01" y="-42.4" font-family="Times-12" font-weight="bold" font-size="14.00">Legend</text>
<polygon fill="#ffffb3" stroke="transparent" points="14,-10 14,-30 34,-30 34,-10 14,-10"/>
<text text-anchor="start" x="37.63" y="-15.4" font-family="Times-12" font-size="14.00"> &#160;Declarations</text>
<polygon fill="#8dd3c7" stroke="transparent" points="127,-10 127,-30 147,-30 147,-10 127,-10"/>
<text text-anchor="start" x="150.73" y="-15.4" font-family="Times-12" font-size="14.00"> &#160;Module</text>
<polygon fill="#80b1d3" stroke="transparent" points="213,-10 213,-30 233,-30 233,-10 213,-10"/>
<text text-anchor="start" x="236.78" y="-15.4" font-family="Times-12" font-size="14.00"> &#160;Bootstrap</text>
<polygon fill="#fdb462" stroke="transparent" points="310,-10 310,-30 330,-30 330,-10 310,-10"/>
<text text-anchor="start" x="333.67" y="-15.4" font-family="Times-12" font-size="14.00"> &#160;Providers</text>
<polygon fill="#fb8072" stroke="transparent" points="406,-10 406,-30 426,-30 426,-10 406,-10"/>
<text text-anchor="start" x="429.73" y="-15.4" font-family="Times-12" font-size="14.00"> &#160;Exports</text>
<g id="clust1" class="cluster">
<title>cluster_BeehiveModule</title>
<polygon fill="none" stroke="black" stroke-dasharray="1,5" points="66,-70 66,-195 430,-195 430,-70 66,-70"/>
</g>
<g id="clust6" class="cluster">
<title>cluster_BeehiveModule_providers</title>
<polygon fill="none" stroke="black" points="74,-78 74,-130 422,-130 422,-78 74,-78"/>
</g>
<!-- BeehiveRepository -->
<g id="node1" class="node">
<title>BeehiveRepository</title>
<ellipse fill="#fdb462" stroke="black" cx="329" cy="-104" rx="85.11" ry="18"/>
<text text-anchor="middle" x="329" y="-99.8" font-family="Times,serif" font-size="14.00">BeehiveRepository</text>
</g>
<!-- BeehiveModule -->
<g id="node3" class="node">
<title>BeehiveModule</title>
<polygon fill="#8dd3c7" stroke="black" points="293.92,-187 290.92,-191 269.92,-191 266.92,-187 188.08,-187 188.08,-151 293.92,-151 293.92,-187"/>
<text text-anchor="middle" x="241" y="-164.8" font-family="Times,serif" font-size="14.00">BeehiveModule</text>
</g>
<!-- BeehiveRepository&#45;&gt;BeehiveModule -->
<g id="edge1" class="edge">
<title>BeehiveRepository&#45;&gt;BeehiveModule</title>
<path fill="none" stroke="black" d="M268.83,-116.84C268.83,-116.84 268.83,-140.52 268.83,-140.52"/>
<polygon fill="black" stroke="black" points="265.33,-140.52 268.83,-150.52 272.33,-140.52 265.33,-140.52"/>
</g>
<!-- BeehiveService -->
<g id="node2" class="node">
<title>BeehiveService</title>
<ellipse fill="#fdb462" stroke="black" cx="154" cy="-104" rx="71.77" ry="18"/>
<text text-anchor="middle" x="154" y="-99.8" font-family="Times,serif" font-size="14.00">BeehiveService</text>
</g>
<!-- BeehiveService&#45;&gt;BeehiveModule -->
<g id="edge2" class="edge">
<title>BeehiveService&#45;&gt;BeehiveModule</title>
<path fill="none" stroke="black" d="M206.96,-116.23C206.96,-116.23 206.96,-140.68 206.96,-140.68"/>
<polygon fill="black" stroke="black" points="203.46,-140.68 206.96,-150.68 210.46,-140.68 203.46,-140.68"/>
</g>
</g>
</svg>
