<?xml version="1.0" encoding="UTF-8" standalone="no"?>
<!DOCTYPE svg PUBLIC "-//W3C//DTD SVG 1.1//EN"
 "http://www.w3.org/Graphics/SVG/1.1/DTD/svg11.dtd">
<!-- Generated by graphviz version 2.47.0 (20210316.0004)
 -->
<!-- Title: dependencies Pages: 1 -->
<svg width="504pt" height="284pt"
 viewBox="0.00 0.00 504.00 284.00" xmlns="http://www.w3.org/2000/svg" xmlns:xlink="http://www.w3.org/1999/xlink">
<g id="graph0" class="graph" transform="scale(1 1) rotate(0) translate(4 280)">
<title>dependencies</title>
<polygon fill="white" stroke="transparent" points="-4,4 -4,-280 500,-280 500,4 -4,4"/>
<text text-anchor="start" x="227.01" y="-42.4" font-family="Times-12" font-weight="bold" font-size="14.00">Legend</text>
<polygon fill="#ffffb3" stroke="transparent" points="14,-10 14,-30 34,-30 34,-10 14,-10"/>
<text text-anchor="start" x="37.63" y="-15.4" font-family="Times-12" font-size="14.00"> &#160;Declarations</text>
<polygon fill="#8dd3c7" stroke="transparent" points="127,-10 127,-30 147,-30 147,-10 127,-10"/>
<text text-anchor="start" x="150.73" y="-15.4" font-family="Times-12" font-size="14.00"> &#160;Module</text>
<polygon fill="#80b1d3" stroke="transparent" points="213,-10 213,-30 233,-30 233,-10 213,-10"/>
<text text-anchor="start" x="236.78" y="-15.4" font-family="Times-12" font-size="14.00"> &#160;Bootstrap</text>
<polygon fill="#fdb462" stroke="transparent" points="310,-10 310,-30 330,-30 330,-10 310,-10"/>
<text text-anchor="start" x="333.67" y="-15.4" font-family="Times-12" font-size="14.00"> &#160;Providers</text>
<polygon fill="#fb8072" stroke="transparent" points="406,-10 406,-30 426,-30 426,-10 406,-10"/>
<text text-anchor="start" x="429.73" y="-15.4" font-family="Times-12" font-size="14.00"> &#160;Exports</text>
<g id="clust1" class="cluster">
<title>cluster_HoneycropModule</title>
<polygon fill="none" stroke="black" stroke-dasharray="1,5" points="44,-70 44,-268 452,-268 452,-70 44,-70"/>
</g>
<g id="clust4" class="cluster">
<title>cluster_HoneycropModule_exports</title>
<polygon fill="none" stroke="black" points="171,-208 171,-260 311,-260 311,-208 171,-208"/>
</g>
<g id="clust6" class="cluster">
<title>cluster_HoneycropModule_providers</title>
<polygon fill="none" stroke="black" points="52,-78 52,-130 444,-130 444,-78 52,-78"/>
</g>
<!-- HoneycropService  -->
<g id="node1" class="node">
<title>HoneycropService </title>
<polygon fill="#fb8072" stroke="black" points="302.67,-252 179.33,-252 179.33,-216 302.67,-216 302.67,-252"/>
<text text-anchor="middle" x="241" y="-229.8" font-family="Times,serif" font-size="14.00">HoneycropService </text>
</g>
<!-- HoneycropModule -->
<g id="node2" class="node">
<title>HoneycropModule</title>
<polygon fill="#8dd3c7" stroke="black" points="301.75,-187 298.75,-191 277.75,-191 274.75,-187 180.25,-187 180.25,-151 301.75,-151 301.75,-187"/>
<text text-anchor="middle" x="241" y="-164.8" font-family="Times,serif" font-size="14.00">HoneycropModule</text>
</g>
<!-- HoneycropModule&#45;&gt;HoneycropService  -->
<g id="edge1" class="edge">
<title>HoneycropModule&#45;&gt;HoneycropService </title>
<path fill="none" stroke="black" stroke-dasharray="5,2" d="M241,-187.11C241,-187.11 241,-205.99 241,-205.99"/>
<polygon fill="black" stroke="black" points="237.5,-205.99 241,-215.99 244.5,-205.99 237.5,-205.99"/>
</g>
<!-- HoneycropRepository -->
<g id="node3" class="node">
<title>HoneycropRepository</title>
<ellipse fill="#fdb462" stroke="black" cx="340" cy="-104" rx="96.13" ry="18"/>
<text text-anchor="middle" x="340" y="-99.8" font-family="Times,serif" font-size="14.00">HoneycropRepository</text>
</g>
<!-- HoneycropRepository&#45;&gt;HoneycropModule -->
<g id="edge2" class="edge">
<title>HoneycropRepository&#45;&gt;HoneycropModule</title>
<path fill="none" stroke="black" d="M272.78,-117.15C272.78,-117.15 272.78,-140.69 272.78,-140.69"/>
<polygon fill="black" stroke="black" points="269.28,-140.69 272.78,-150.69 276.28,-140.69 269.28,-140.69"/>
</g>
<!-- HoneycropService -->
<g id="node4" class="node">
<title>HoneycropService</title>
<ellipse fill="#fdb462" stroke="black" cx="143" cy="-104" rx="82.79" ry="18"/>
<text text-anchor="middle" x="143" y="-99.8" font-family="Times,serif" font-size="14.00">HoneycropService</text>
</g>
<!-- HoneycropService&#45;&gt;HoneycropModule -->
<g id="edge3" class="edge">
<title>HoneycropService&#45;&gt;HoneycropModule</title>
<path fill="none" stroke="black" d="M203.01,-116.53C203.01,-116.53 203.01,-140.85 203.01,-140.85"/>
<polygon fill="black" stroke="black" points="199.51,-140.85 203.01,-150.85 206.51,-140.85 199.51,-140.85"/>
</g>
</g>
</svg>
