<?xml version="1.0" encoding="UTF-8" standalone="no"?>
<!DOCTYPE svg PUBLIC "-//W3C//DTD SVG 1.1//EN"
 "http://www.w3.org/Graphics/SVG/1.1/DTD/svg11.dtd">
<!-- Generated by graphviz version 2.47.0 (20210316.0004)
 -->
<!-- Title: dependencies Pages: 1 -->
<svg width="1212pt" height="211pt"
 viewBox="0.00 0.00 1212.00 211.00" xmlns="http://www.w3.org/2000/svg" xmlns:xlink="http://www.w3.org/1999/xlink">
<g id="graph0" class="graph" transform="scale(1 1) rotate(0) translate(4 207)">
<title>dependencies</title>
<polygon fill="white" stroke="transparent" points="-4,4 -4,-207 1208,-207 1208,4 -4,4"/>
<text text-anchor="start" x="581.01" y="-42.4" font-family="Times-12" font-weight="bold" font-size="14.00">Legend</text>
<polygon fill="#ffffb3" stroke="transparent" points="368,-10 368,-30 388,-30 388,-10 368,-10"/>
<text text-anchor="start" x="391.63" y="-15.4" font-family="Times-12" font-size="14.00"> &#160;Declarations</text>
<polygon fill="#8dd3c7" stroke="transparent" points="481,-10 481,-30 501,-30 501,-10 481,-10"/>
<text text-anchor="start" x="504.73" y="-15.4" font-family="Times-12" font-size="14.00"> &#160;Module</text>
<polygon fill="#80b1d3" stroke="transparent" points="567,-10 567,-30 587,-30 587,-10 567,-10"/>
<text text-anchor="start" x="590.78" y="-15.4" font-family="Times-12" font-size="14.00"> &#160;Bootstrap</text>
<polygon fill="#fdb462" stroke="transparent" points="664,-10 664,-30 684,-30 684,-10 664,-10"/>
<text text-anchor="start" x="687.67" y="-15.4" font-family="Times-12" font-size="14.00"> &#160;Providers</text>
<polygon fill="#fb8072" stroke="transparent" points="760,-10 760,-30 780,-30 780,-10 760,-10"/>
<text text-anchor="start" x="783.73" y="-15.4" font-family="Times-12" font-size="14.00"> &#160;Exports</text>
<g id="clust1" class="cluster">
<title>cluster_AppModule</title>
<polygon fill="none" stroke="black" stroke-dasharray="1,5" points="8,-70 8,-195 1196,-195 1196,-70 8,-70"/>
</g>
<g id="clust6" class="cluster">
<title>cluster_AppModule_providers</title>
<polygon fill="none" stroke="black" points="1058,-78 1058,-130 1188,-130 1188,-78 1058,-78"/>
</g>
<g id="clust3" class="cluster">
<title>cluster_AppModule_imports</title>
<polygon fill="none" stroke="black" points="16,-78 16,-130 1050,-130 1050,-78 16,-78"/>
</g>
<!-- AddressModule -->
<g id="node1" class="node">
<title>AddressModule</title>
<polygon fill="#8dd3c7" stroke="black" points="1041.92,-122 1038.92,-126 1017.92,-126 1014.92,-122 936.08,-122 936.08,-86 1041.92,-86 1041.92,-122"/>
<text text-anchor="middle" x="989" y="-99.8" font-family="Times,serif" font-size="14.00">AddressModule</text>
</g>
<!-- AppModule -->
<g id="node9" class="node">
<title>AppModule</title>
<polygon fill="#8dd3c7" stroke="black" points="647.66,-187 644.66,-191 623.66,-191 620.66,-187 564.34,-187 564.34,-151 647.66,-151 647.66,-187"/>
<text text-anchor="middle" x="606" y="-164.8" font-family="Times,serif" font-size="14.00">AppModule</text>
</g>
<!-- AddressModule&#45;&gt;AppModule -->
<g id="edge1" class="edge">
<title>AddressModule&#45;&gt;AppModule</title>
<path fill="none" stroke="black" d="M989,-122.13C989,-142.57 989,-173 989,-173 989,-173 657.72,-173 657.72,-173"/>
<polygon fill="black" stroke="black" points="657.72,-169.5 647.72,-173 657.72,-176.5 657.72,-169.5"/>
</g>
<!-- BeehiveModule -->
<g id="node2" class="node">
<title>BeehiveModule</title>
<polygon fill="#8dd3c7" stroke="black" points="918.92,-122 915.92,-126 894.92,-126 891.92,-122 813.08,-122 813.08,-86 918.92,-86 918.92,-122"/>
<text text-anchor="middle" x="866" y="-99.8" font-family="Times,serif" font-size="14.00">BeehiveModule</text>
</g>
<!-- BeehiveModule&#45;&gt;AppModule -->
<g id="edge2" class="edge">
<title>BeehiveModule&#45;&gt;AppModule</title>
<path fill="none" stroke="black" d="M866,-122.27C866,-140.56 866,-166 866,-166 866,-166 657.77,-166 657.77,-166"/>
<polygon fill="black" stroke="black" points="657.77,-162.5 647.77,-166 657.77,-169.5 657.77,-162.5"/>
</g>
<!-- BeekeeperModule -->
<g id="node3" class="node">
<title>BeekeeperModule</title>
<polygon fill="#8dd3c7" stroke="black" points="795.12,-122 792.12,-126 771.12,-126 768.12,-122 676.88,-122 676.88,-86 795.12,-86 795.12,-122"/>
<text text-anchor="middle" x="736" y="-99.8" font-family="Times,serif" font-size="14.00">BeekeeperModule</text>
</g>
<!-- BeekeeperModule&#45;&gt;AppModule -->
<g id="edge3" class="edge">
<title>BeekeeperModule&#45;&gt;AppModule</title>
<path fill="none" stroke="black" d="M736,-122.01C736,-138.05 736,-159 736,-159 736,-159 657.85,-159 657.85,-159"/>
<polygon fill="black" stroke="black" points="657.85,-155.5 647.85,-159 657.85,-162.5 657.85,-155.5"/>
</g>
<!-- BeeyardModule -->
<g id="node4" class="node">
<title>BeeyardModule</title>
<polygon fill="#8dd3c7" stroke="black" points="659.19,-122 656.19,-126 635.19,-126 632.19,-122 552.81,-122 552.81,-86 659.19,-86 659.19,-122"/>
<text text-anchor="middle" x="606" y="-99.8" font-family="Times,serif" font-size="14.00">BeeyardModule</text>
</g>
<!-- BeeyardModule&#45;&gt;AppModule -->
<g id="edge4" class="edge">
<title>BeeyardModule&#45;&gt;AppModule</title>
<path fill="none" stroke="black" d="M606,-122.11C606,-122.11 606,-140.99 606,-140.99"/>
<polygon fill="black" stroke="black" points="602.5,-140.99 606,-150.99 609.5,-140.99 602.5,-140.99"/>
</g>
<!-- ClientModule -->
<g id="node5" class="node">
<title>ClientModule</title>
<polygon fill="#8dd3c7" stroke="black" points="534.77,-122 531.77,-126 510.77,-126 507.77,-122 441.23,-122 441.23,-86 534.77,-86 534.77,-122"/>
<text text-anchor="middle" x="488" y="-99.8" font-family="Times,serif" font-size="14.00">ClientModule</text>
</g>
<!-- ClientModule&#45;&gt;AppModule -->
<g id="edge5" class="edge">
<title>ClientModule&#45;&gt;AppModule</title>
<path fill="none" stroke="black" d="M488,-122.01C488,-138.05 488,-159 488,-159 488,-159 554.07,-159 554.07,-159"/>
<polygon fill="black" stroke="black" points="554.07,-162.5 564.07,-159 554.07,-155.5 554.07,-162.5"/>
</g>
<!-- HarvesthoneyModule -->
<g id="node6" class="node">
<title>HarvesthoneyModule</title>
<polygon fill="#8dd3c7" stroke="black" points="422.8,-122 419.8,-126 398.8,-126 395.8,-122 285.2,-122 285.2,-86 422.8,-86 422.8,-122"/>
<text text-anchor="middle" x="354" y="-99.8" font-family="Times,serif" font-size="14.00">HarvesthoneyModule</text>
</g>
<!-- HarvesthoneyModule&#45;&gt;AppModule -->
<g id="edge6" class="edge">
<title>HarvesthoneyModule&#45;&gt;AppModule</title>
<path fill="none" stroke="black" d="M354,-122.27C354,-140.56 354,-166 354,-166 354,-166 554.1,-166 554.1,-166"/>
<polygon fill="black" stroke="black" points="554.1,-169.5 564.1,-166 554.1,-162.5 554.1,-169.5"/>
</g>
<!-- HoneycropModule -->
<g id="node7" class="node">
<title>HoneycropModule</title>
<polygon fill="#8dd3c7" stroke="black" points="266.75,-122 263.75,-126 242.75,-126 239.75,-122 145.25,-122 145.25,-86 266.75,-86 266.75,-122"/>
<text text-anchor="middle" x="206" y="-99.8" font-family="Times,serif" font-size="14.00">HoneycropModule</text>
</g>
<!-- HoneycropModule&#45;&gt;AppModule -->
<g id="edge7" class="edge">
<title>HoneycropModule&#45;&gt;AppModule</title>
<path fill="none" stroke="black" d="M206,-122.13C206,-142.57 206,-173 206,-173 206,-173 554.32,-173 554.32,-173"/>
<polygon fill="black" stroke="black" points="554.33,-176.5 564.32,-173 554.32,-169.5 554.33,-176.5"/>
</g>
<!-- ProductModule -->
<g id="node8" class="node">
<title>ProductModule</title>
<polygon fill="#8dd3c7" stroke="black" points="127.6,-122 124.6,-126 103.6,-126 100.6,-122 24.4,-122 24.4,-86 127.6,-86 127.6,-122"/>
<text text-anchor="middle" x="76" y="-99.8" font-family="Times,serif" font-size="14.00">ProductModule</text>
</g>
<!-- ProductModule&#45;&gt;AppModule -->
<g id="edge8" class="edge">
<title>ProductModule&#45;&gt;AppModule</title>
<path fill="none" stroke="black" d="M76,-122.01C76,-144.49 76,-180 76,-180 76,-180 553.97,-180 553.97,-180"/>
<polygon fill="black" stroke="black" points="553.97,-183.5 563.97,-180 553.97,-176.5 553.97,-183.5"/>
</g>
<!-- AppService -->
<g id="node10" class="node">
<title>AppService</title>
<ellipse fill="#fdb462" stroke="black" cx="1123" cy="-104" rx="56.74" ry="18"/>
<text text-anchor="middle" x="1123" y="-99.8" font-family="Times,serif" font-size="14.00">AppService</text>
</g>
<!-- AppService&#45;&gt;AppModule -->
<g id="edge9" class="edge">
<title>AppService&#45;&gt;AppModule</title>
<path fill="none" stroke="black" d="M1123,-122.01C1123,-144.49 1123,-180 1123,-180 1123,-180 657.87,-180 657.87,-180"/>
<polygon fill="black" stroke="black" points="657.87,-176.5 647.87,-180 657.87,-183.5 657.87,-176.5"/>
</g>
</g>
</svg>
