<?xml version="1.0" encoding="UTF-8" standalone="no"?>
<!DOCTYPE svg PUBLIC "-//W3C//DTD SVG 1.1//EN"
 "http://www.w3.org/Graphics/SVG/1.1/DTD/svg11.dtd">
<!-- Generated by graphviz version 2.47.0 (20210316.0004)
 -->
<!-- Title: dependencies Pages: 1 -->
<svg width="622pt" height="211pt"
 viewBox="0.00 0.00 622.00 211.00" xmlns="http://www.w3.org/2000/svg" xmlns:xlink="http://www.w3.org/1999/xlink">
<g id="graph0" class="graph" transform="scale(1 1) rotate(0) translate(4 207)">
<title>dependencies</title>
<polygon fill="white" stroke="transparent" points="-4,4 -4,-207 618,-207 618,4 -4,4"/>
<text text-anchor="start" x="286.01" y="-42.4" font-family="Times-12" font-weight="bold" font-size="14.00">Legend</text>
<polygon fill="#ffffb3" stroke="transparent" points="73,-10 73,-30 93,-30 93,-10 73,-10"/>
<text text-anchor="start" x="96.63" y="-15.4" font-family="Times-12" font-size="14.00"> &#160;Declarations</text>
<polygon fill="#8dd3c7" stroke="transparent" points="186,-10 186,-30 206,-30 206,-10 186,-10"/>
<text text-anchor="start" x="209.73" y="-15.4" font-family="Times-12" font-size="14.00"> &#160;Module</text>
<polygon fill="#80b1d3" stroke="transparent" points="272,-10 272,-30 292,-30 292,-10 272,-10"/>
<text text-anchor="start" x="295.78" y="-15.4" font-family="Times-12" font-size="14.00"> &#160;Bootstrap</text>
<polygon fill="#fdb462" stroke="transparent" points="369,-10 369,-30 389,-30 389,-10 369,-10"/>
<text text-anchor="start" x="392.67" y="-15.4" font-family="Times-12" font-size="14.00"> &#160;Providers</text>
<polygon fill="#fb8072" stroke="transparent" points="465,-10 465,-30 485,-30 485,-10 465,-10"/>
<text text-anchor="start" x="488.73" y="-15.4" font-family="Times-12" font-size="14.00"> &#160;Exports</text>
<g id="clust1" class="cluster">
<title>cluster_HarvesthoneyModule</title>
<polygon fill="none" stroke="black" stroke-dasharray="1,5" points="8,-70 8,-195 606,-195 606,-70 8,-70"/>
</g>
<g id="clust3" class="cluster">
<title>cluster_HarvesthoneyModule_imports</title>
<polygon fill="none" stroke="black" points="460,-78 460,-130 598,-130 598,-78 460,-78"/>
</g>
<g id="clust6" class="cluster">
<title>cluster_HarvesthoneyModule_providers</title>
<polygon fill="none" stroke="black" points="16,-78 16,-130 452,-130 452,-78 16,-78"/>
</g>
<!-- HoneycropModule -->
<g id="node1" class="node">
<title>HoneycropModule</title>
<polygon fill="#8dd3c7" stroke="black" points="589.75,-122 586.75,-126 565.75,-126 562.75,-122 468.25,-122 468.25,-86 589.75,-86 589.75,-122"/>
<text text-anchor="middle" x="529" y="-99.8" font-family="Times,serif" font-size="14.00">HoneycropModule</text>
</g>
<!-- HarvesthoneyModule -->
<g id="node2" class="node">
<title>HarvesthoneyModule</title>
<polygon fill="#8dd3c7" stroke="black" points="405.8,-187 402.8,-191 381.8,-191 378.8,-187 268.2,-187 268.2,-151 405.8,-151 405.8,-187"/>
<text text-anchor="middle" x="337" y="-164.8" font-family="Times,serif" font-size="14.00">HarvesthoneyModule</text>
</g>
<!-- HoneycropModule&#45;&gt;HarvesthoneyModule -->
<g id="edge1" class="edge">
<title>HoneycropModule&#45;&gt;HarvesthoneyModule</title>
<path fill="none" stroke="black" d="M529,-122.11C529,-141.34 529,-169 529,-169 529,-169 415.77,-169 415.77,-169"/>
<polygon fill="black" stroke="black" points="415.77,-165.5 405.77,-169 415.77,-172.5 415.77,-165.5"/>
</g>
<!-- HarvesthoneyRepository -->
<g id="node3" class="node">
<title>HarvesthoneyRepository</title>
<ellipse fill="#fdb462" stroke="black" cx="337" cy="-104" rx="107.09" ry="18"/>
<text text-anchor="middle" x="337" y="-99.8" font-family="Times,serif" font-size="14.00">HarvesthoneyRepository</text>
</g>
<!-- HarvesthoneyRepository&#45;&gt;HarvesthoneyModule -->
<g id="edge2" class="edge">
<title>HarvesthoneyRepository&#45;&gt;HarvesthoneyModule</title>
<path fill="none" stroke="black" d="M337,-122.11C337,-122.11 337,-140.99 337,-140.99"/>
<polygon fill="black" stroke="black" points="333.5,-140.99 337,-150.99 340.5,-140.99 333.5,-140.99"/>
</g>
<!-- HarvesthoneyService -->
<g id="node4" class="node">
<title>HarvesthoneyService</title>
<ellipse fill="#fdb462" stroke="black" cx="118" cy="-104" rx="93.74" ry="18"/>
<text text-anchor="middle" x="118" y="-99.8" font-family="Times,serif" font-size="14.00">HarvesthoneyService</text>
</g>
<!-- HarvesthoneyService&#45;&gt;HarvesthoneyModule -->
<g id="edge3" class="edge">
<title>HarvesthoneyService&#45;&gt;HarvesthoneyModule</title>
<path fill="none" stroke="black" d="M118,-122.11C118,-141.34 118,-169 118,-169 118,-169 258.31,-169 258.31,-169"/>
<polygon fill="black" stroke="black" points="258.31,-172.5 268.31,-169 258.31,-165.5 258.31,-172.5"/>
</g>
</g>
</svg>
